<?xml version="1.0" encoding="UTF-8" standalone="no"?>
<svg
   fill="#000000"
   viewBox="0 0 40 40"
   width="40"
   height="40"
   version="1.1"
   id="svg2300"
   sodipodi:docname="instagram.svg"
   inkscape:version="1.2 (dc2aedaf03, 2022-05-15)"
   xmlns:inkscape="http://www.inkscape.org/namespaces/inkscape"
   xmlns:sodipodi="http://sodipodi.sourceforge.net/DTD/sodipodi-0.dtd"
   xmlns="http://www.w3.org/2000/svg"
   xmlns:svg="http://www.w3.org/2000/svg">
  <defs
     id="defs2304" />
  <sodipodi:namedview
     id="namedview2302"
     pagecolor="#ffffff"
     bordercolor="#666666"
     borderopacity="1.0"
     inkscape:showpageshadow="2"
     inkscape:pageopacity="0.0"
     inkscape:pagecheckerboard="0"
     inkscape:deskcolor="#d1d1d1"
     showgrid="false"
     inkscape:zoom="9.46"
     inkscape:cx="22.145877"
     inkscape:cy="22.093023"
     inkscape:window-width="1360"
     inkscape:window-height="702"
     inkscape:window-x="0"
     inkscape:window-y="0"
     inkscape:window-maximized="1"
     inkscape:current-layer="svg2300" />
  <path
     id="path2298"
     style="fill:#48b0d3;fill-opacity:1;stroke-width:0.877526"
     d="m 12.10307,0.69366937 c -6.2913536,0 -11.40753463,5.11592783 -11.40753463,11.40828663 v 15.796089 c 0,6.29236 5.11618103,11.408286 11.40753463,11.408286 h 15.79386 c 6.291353,0 11.407535,-5.115926 11.407535,-11.408286 V 12.101956 c 0,-6.2923588 -5.116182,-11.40828663 -11.407535,-11.40828663 z M 30.529884,7.7141534 c 0.965201,0 1.755302,0.7897662 1.755302,1.7551209 0,0.9653547 -0.790102,1.7551207 -1.755302,1.7551207 -0.965199,0 -1.755303,-0.789766 -1.755303,-1.7551207 0,-0.9653547 0.790104,-1.7551209 1.755303,-1.7551209 z M 20,10.346835 c 5.326152,0 9.652232,4.326162 9.652232,9.653166 0,5.327003 -4.326081,9.653166 -9.652232,9.653166 -5.326153,0 -9.652232,-4.326163 -9.652232,-9.653166 0,-5.327004 4.32608,-9.653166 9.652232,-9.653166 z" />
</svg>
