<?xml version="1.0" encoding="UTF-8" standalone="no"?>
<svg
   width="64"
   height="64"
   viewBox="0 0 32 32"
   preserveAspectRatio="xMidYMid"
   version="1.1"
   id="svg4"
   sodipodi:docname="flask.svg"
   inkscape:version="1.1.2 (0a00cf5339, 2022-02-04, custom)"
   xmlns:inkscape="http://www.inkscape.org/namespaces/inkscape"
   xmlns:sodipodi="http://sodipodi.sourceforge.net/DTD/sodipodi-0.dtd"
   xmlns="http://www.w3.org/2000/svg"
   xmlns:svg="http://www.w3.org/2000/svg">
  <defs
     id="defs8" />
  <sodipodi:namedview
     id="namedview6"
     pagecolor="#ffffff"
     bordercolor="#666666"
     borderopacity="1.0"
     inkscape:pageshadow="2"
     inkscape:pageopacity="0.0"
     inkscape:pagecheckerboard="0"
     showgrid="false"
     inkscape:zoom="2.1210938"
     inkscape:cx="-13.672192"
     inkscape:cy="55.867403"
     inkscape:window-width="1352"
     inkscape:window-height="696"
     inkscape:window-x="4"
     inkscape:window-y="36"
     inkscape:window-maximized="1"
     inkscape:current-layer="svg4" />
  <path
     d="M 10.74408,25.104144 C 9.7475884,24.320019 8.6857533,23.5702 7.9604382,22.513266 6.4330291,20.64852 5.2568425,18.490544 4.453115,16.221484 3.9671212,14.74635 3.7996779,13.164215 3.174012,11.74544 2.5189414,10.716277 3.2867299,9.589098 4.4155423,9.2623795 4.917872,9.1659975 5.8008288,8.6906221 4.7340929,9.0304093 3.7784412,9.7312205 3.6861432,8.3933082 4.6662988,8.3083614 5.3360717,8.2185138 5.5811106,7.6712603 5.3524077,7.179549 4.6336269,6.7107079 7.0938173,6.196943 5.8555542,5.4969486 4.5666496,4.108395 7.6590404,3.8404858 6.8961526,5.4201698 6.7148239,6.633929 9.0573956,5.1963676 8.5134093,6.5996236 c 0.552971,0.6738569 2.0697617,0.1535577 2.0313727,1.098591 0.805361,0.055542 1.081438,0.7326663 1.837791,0.7841244 0.784125,0.3536728 2.2029,0.6322003 2.469175,1.5151571 -0.775956,0.6150479 -2.575358,-1.2701182 -2.662756,0.4329019 0.235238,2.515733 0.174795,5.106611 1.094508,7.502274 0.435352,1.449814 1.490653,2.591695 2.44222,3.721324 0.912362,1.105942 2.148175,1.885166 3.406041,2.540236 1.104308,0.521116 2.295197,0.865805 3.498338,1.083072 0.487628,-0.373276 1.350165,-1.761012 2.110602,-1.176186 0.03676,0.658337 -1.511073,1.375485 -0.07351,1.30279 0.845384,-0.254841 1.431027,0.653437 2.126121,-0.166627 0.641185,0.759621 2.662756,-0.48436 2.2078,1.066736 -0.616681,0.39778 -1.515974,0.157642 -2.133472,0.704895 -1.018545,-0.508864 -1.829623,0.454956 -2.956802,0.333253 -1.252149,0.224619 -2.525534,0.314467 -3.794836,0.3161 -2.08283,-0.163359 -4.208951,-0.233603 -6.189682,-0.958918 -1.11656,-0.324268 -2.20535,-0.959736 -3.185505,-1.59602 z m 1.758562,0.76207 c 1.089607,0.470475 2.156342,0.967087 3.348865,1.117378 1.894967,0.263008 3.851194,0.669773 5.752696,0.298947 -0.860903,-0.388795 -1.750394,0.151107 -2.60803,-0.277711 -1.029164,0.220535 -2.123671,-0.05717 -3.185506,-0.19358 -1.188438,-0.529284 -2.471625,-0.893575 -3.584102,-1.581318 -1.391004,-0.508047 0.718781,0.651804 1.094507,0.745735 0.869071,0.493345 -0.955652,-0.245039 -1.213759,-0.457406 -0.728582,-0.408398 -0.82088,-0.323451 -0.07188,0.09148 l 0.457406,0.256474 z M 10.42798,24.400882 C 11.484097,24.792944 10.42308,23.657597 9.9403524,23.722941 9.7263517,23.351299 9.1211057,23.116061 9.5482901,22.916763 8.7805016,23.183039 8.7445626,21.903936 8.3843554,22.086898 7.5724599,21.830424 8.0682553,20.922147 7.1019853,20.363458 7.0137713,19.775365 6.1414329,19.266501 5.8637221,18.380277 5.7412027,17.926138 4.877849,16.624165 5.4079498,17.83629 c 0.4508716,1.168019 1.2447975,2.166961 1.9064025,3.165086 0.5129481,0.950751 1.1190109,1.943975 2.0534259,2.537786 0.3152833,0.302214 0.6191315,0.765338 1.0634688,0.860086 z M 7.3862304,21.060185 c 0.036756,-0.159275 0.1927639,0.344688 0,0 z m 4.3069666,3.808721 c 0.233604,-0.10455 -0.33652,-0.132321 0,0 z m 0.571758,0.2091 c -0.05963,-0.288329 -0.261375,0.161726 0,0 z m 0.71878,0.298947 c 0.341421,-0.325084 -0.526833,-0.204199 0,0 z m 1.230095,0.686109 c 0.207467,-0.306298 -0.664055,-0.114351 0,0 z m -2.360541,-1.645844 c 0.530918,-0.343055 -0.686109,-0.0049 0,0 z m 0.539086,0.269543 c -0.01634,-0.181329 -0.191947,0.08168 0,0 z m 2.68971,1.679333 c 0.432902,0.27281 2.525534,0.597895 1.215393,0.111901 -0.220535,0.04574 -2.429969,-0.625666 -1.215393,-0.111901 z m -4.270211,-3.325995 c -0.04084,-0.181328 -0.671407,-0.200932 0,0 z m 1.252149,0.730216 c 0.326718,-0.228703 -0.676308,-0.175611 0,0 z m 1.061835,0.653437 c 0.468024,-0.176428 -0.757987,-0.177245 0,0 z m -2.825299,-1.939891 c 0.506414,0.388795 2.046892,0.04901 0.775957,-0.23197 -0.577475,-0.307932 -1.8786315,-0.518666 -0.991591,0.185413 l 0.214818,0.04656 z m 3.52856,2.153892 c 0.212367,-0.359391 -0.88704,-0.205833 0,0 z m -1.072453,-0.851919 c 1.24153,0.351223 -1.043049,-0.784124 -0.306299,-0.130687 l 0.16336,0.07351 0.142939,0.05554 z m 2.149808,1.241531 c 1.176186,0.01144 -1.061835,-0.16336 0,0 z M 9.8480544,21.80347 c -0.045741,-0.218902 -0.2899627,0.01797 0,0 z m 7.0465016,4.338822 c 0.03104,-0.39533 -0.383894,0.294046 0,0 z m -5.039633,-3.111994 c -0.07106,-0.208283 -0.367559,-0.0082 0,0 z m -1.8949675,-1.36405 c 0.6746735,-0.04084 -0.9229798,-0.297314 0,0 z M 7.7162161,20.217251 c -0.08413,-0.323451 -0.7334831,-0.581559 0,0 z m 5.8907349,3.738477 c -0.12252,-0.141306 -0.05718,0.03022 0,0 z m 3.665782,2.250274 c -0.01144,-0.215635 -0.199299,0.08168 0,0 z m -3.99005,-2.585161 c 0.06534,-0.27771 -0.575842,-0.08413 0,0 z m -2.731367,-1.731608 c 0.50233,-0.05309 -0.8045444,-0.33897 0,0 z m 4.6198,2.871039 c 0.782491,-0.310382 -0.762071,-0.151107 0,0 z M 12.768101,23.12913 c 0.900926,0.115985 -1.072453,-0.612597 -0.198481,-0.06534 z m 3.132414,1.926006 c 0.8413,-0.50233 0.563589,1.178637 1.42776,0.142122 0.851918,-0.622398 -0.735117,0.769422 0.313649,0.111085 0.759621,-0.508048 1.881082,0.240954 2.589245,0.48436 0.509681,-0.0245 1.004659,0.44107 1.527409,0.157641 1.004659,-0.271176 -1.966846,-0.401863 -1.187622,-0.88214 -0.919713,0.26791 -1.599287,-0.31855 -2.052609,-0.908277 -1.032431,-0.238505 -2.224953,-0.766155 -2.740352,-1.679333 -0.209916,-0.343055 0.302215,0.04901 -0.181328,-0.512131 -0.620766,-0.552971 -0.931148,-1.181088 -1.349348,-1.854128 -0.498246,-0.265459 -0.557872,-1.048766 -0.607696,-0.02614 0.0041,-0.64527 -0.601979,-1.080622 -0.751453,-0.90011 -0.0025,-0.620765 0.649353,-0.310383 0.192764,-0.769422 -0.09802,-0.645266 -0.421467,-1.315039 -0.517849,-2.043621 -0.151107,-0.351223 -0.02124,-1.102675 -0.514581,-0.307933 -0.179696,0.83885 -0.05963,-1.030796 0.220535,-0.414932 0.367558,-0.628933 -0.132321,-0.555422 -0.151925,-0.468024 0.239322,-0.530918 0.151925,-1.284004 -0.06289,-0.996492 0.12742,-0.563589 0.201749,-2.070578 -0.190313,-1.803486 0.23687,-0.588093 0.450871,-2.6929775 -0.581559,-1.890883 -0.4182,0.0057 -1.141882,0.151924 -1.4841192,0.321817 1.0724502,0.591361 -0.1078201,0.214001 -0.5456229,0.119253 -0.057176,0.547253 -0.4900778,0.310382 -1.0291633,0.3161 0.8641704,0.106183 -0.4206501,0.88214 -0.9148119,0.581559 -0.6436354,0.307115 0.5554215,1.074904 0.012252,1.312591 0.066977,0.35694 -0.9858731,-0.129053 -0.9033767,0.697544 -0.6240324,-0.263008 -0.085764,0.980156 0.2270694,0.559506 1.0618351,0.287512 0.7473686,0.942583 0.7743228,1.565798 -0.1731608,0.362658 -0.8543689,-0.852735 -0.1519241,-0.796376 -0.5554214,-0.900926 -0.6125972,-0.326719 -1.0740871,0.09311 -0.1061835,0.03022 1.1761867,0.596261 0.3708255,0.873972 0.7081624,0.10945 0.7285823,0.729399 0.8723385,1.120644 0.424734,0.443521 0.3373368,-0.490078 0.8470177,0.04329 C 7.9604382,16.828364 6.5759685,15.96501 7.6908954,16.24027 c -0.00572,-0.477009 -0.2017487,-0.862537 0.140489,-0.853552 0.3389704,-0.612597 -0.3544896,1.511073 0.4083981,0.73185 0.2107334,-0.0923 0.2638252,-0.612598 0.6428187,0.04901 0.5505207,0.542353 0.1992983,0.934415 -0.5782918,0.437803 0.1388554,0.472108 1.0397817,0.640369 0.869888,1.377936 0.1796952,0.649353 0.4304517,0.410031 0.6493531,0.372459 0.1633592,0.630566 0.2695425,0.166626 0.2777105,-0.133138 0.785758,0.16826 0.601162,0.633017 0.847835,0.957285 0.541536,0.245039 -0.775957,-1.656463 0.155191,-0.571757 0.977705,0.88214 0.367558,1.252148 -0.510498,1.110843 0.555422,-0.04492 0.735117,0.751452 1.429394,0.722864 0.633834,0.302215 1.061835,1.459615 -0.0294,0.976889 -0.378177,-0.341421 -1.720173,-0.762888 -0.624033,-0.114352 1.011194,0.468841 1.814922,0.748186 2.790177,1.337096 0.697544,0.490077 0.998942,1.068369 1.263584,1.181904 -0.58646,0.280161 -1.767547,-0.223802 -0.898476,-0.378177 -0.547254,-0.09965 -1.163118,-0.375726 -0.638735,0.305482 0.445971,0.372459 1.578867,0.333253 1.78225,0.375726 -0.171528,0.378994 -0.468025,0.408399 0.0065,0.43862 -0.529284,0.282611 0.169894,0.326718 0.218901,0.487627 z M 14.817443,21.99705 c -0.322635,-0.337336 -0.405948,-0.967903 -0.05718,-0.419016 0.179695,0.07188 0.571758,1.031614 0.05718,0.419016 z m 3.52856,2.230671 c 0.200932,-0.01307 0.0057,0.152741 0,0 z m -4.034974,-3.06707 c -0.01307,-0.509681 0.115985,0.392062 0,0 z M 13.959807,20.68936 c -0.405948,-0.784125 0.510498,0.220535 0,0 z M 9.7108326,17.748893 c 0.2385045,-0.06371 0.1176187,0.406765 0,0 z m 3.3815364,1.832891 c 0.147024,-0.549704 0.163359,0.460673 0,0 z M 10.70324,17.92042 c -0.16826,-0.302214 0.351222,0.284245 0,0 z m 2.050159,0.656704 c -0.383895,-0.860086 0.27281,-0.469657 0.08576,0.140489 z M 9.2183044,16.21985 C 9.0549452,15.937239 8.7633489,15.109007 8.8548301,14.855801 c 0.08168,0.411665 0.8756056,1.772448 0.388795,0.571757 -0.5374519,-1.012827 0.6428187,0.328352 0.7645209,0.581559 0.05718,0.250756 -0.3316188,-0.06861 -0.068611,0.521116 C 9.4592594,15.858826 9.6561073,16.901058 9.2191212,16.228018 Z M 8.1262478,15.466764 c 0.044924,-0.656704 0.2499397,0.449238 0,0 z m 0.4917114,0.169894 c 0.2344205,-0.494979 0.396963,0.690193 0,0 z M 7.4254366,14.738182 c -0.4067645,-0.404314 -0.7008112,-0.775957 0.019603,-0.250757 0.2777108,0.01062 -0.6166812,-0.847017 0.066977,-0.272809 0.7187807,0.130687 0.3544896,1.178637 -0.085764,0.522749 z m 0.6207652,-0.01634 c 0.2368709,-0.234421 0.1257866,0.230337 0,0 z m 0.3822606,0.122519 c -0.3593903,-0.671406 0.4345357,0.281795 0,0 z M 7.6688419,14.11905 c -1.182721,-1.053667 1.4865692,0.549704 0.1927639,0.196031 z m 3.3880711,1.968479 c -0.512131,-0.306298 -0.136405,-2.159609 0.03839,-0.892758 0.498246,-0.160909 -0.02777,0.655071 0.343054,0.646903 -0.05718,0.514581 -0.224619,0.699994 -0.381444,0.245039 z m 1.252965,0.740835 c 0.04901,-0.558689 0.106184,0.38226 0,0 z m -0.217267,-0.215635 c 0.05718,-0.238504 0.0049,0.280978 0,0 z m -4.183631,-2.84 c -0.7596205,-1.04795 2.2078,1.060201 0.4868106,0.265459 C 8.2160954,13.990813 7.9996444,13.974477 7.90898,13.772729 Z m 2.413633,1.279103 c -0.07188,-0.88214 0.160092,0.147023 0,0 z m 1.832074,1.176186 c 0.141306,-0.502329 0.01062,0.332436 0,0 z M 8.0257819,13.372499 c 0.4516883,-0.09638 1.8786314,0.792292 0.5676734,0.253206 -0.1445729,-0.160092 -0.4541387,-0.0874 -0.5676734,-0.253206 z m 3.8765151,1.93254 c 0.04901,-0.90256 0.269543,-0.539086 0.0016,0.130687 z m -3.5408118,-2.24619 c 0.1845959,-0.269543 -0.4884442,-1.219477 0.096382,-0.340604 0.2450389,0.200932 0.7326663,0.33652 0.3103826,0.421467 0.665689,0.588093 -0.1633593,0.159275 -0.4059478,-0.08168 z m 3.3488648,1.965212 c 0.126603,-1.029164 0.111901,0.601978 0,0 z m -3.7327591,-2.91433 c 0.140489,-0.06044 0.073512,0.187863 0,0 z m 0.873972,0.5203 c 0.224619,-0.472109 0.4149325,0.526017 0,0 z m 2.4642741,1.370584 c -0.0016,-0.179695 0.04656,0.263825 0,0 z m -0.142939,-0.315283 c -0.341421,-0.843751 0.326718,0.446787 0,0 z m -0.209917,-0.553788 c -0.05718,-0.348773 0.196031,0.437802 0,0 z m 0.341421,-0.555422 c -0.235237,-0.413299 0.296497,-1.821456 0.356123,-0.947484 -0.247489,0.681208 -0.07106,1.061836 0.100466,0.147024 0.318551,-0.718781 -0.06861,1.418775 -0.457406,0.80046 z m 0.351222,-2.095899 c 0.1021,-0.125787 0.02287,0.151107 0,0 z m -0.587276,11.558484 c -0.138855,-0.122519 0.01797,0.07678 0,0 z m 1.208858,0.610964 c 0.672224,0.173161 0.669773,-0.10455 0.06126,-0.187863 -0.326718,-0.303849 -1.357515,-0.626483 -0.434535,-0.03757 0.06044,0.163359 0.253207,0.151107 0.373276,0.224619 z M 9.8921614,21.065086 c 0.3700086,0.277711 1.3942716,0.782491 0.5276506,0.106183 0.292413,-0.339787 -0.5595057,-0.521116 -0.277711,-0.748185 -0.7187807,-0.44107 -0.5676734,-0.408398 -0.06371,-0.386345 -0.8641704,-0.386344 0.12497,-0.35694 0.07841,-0.555421 -0.3332509,-0.06534 -1.6548273,-0.588093 -0.8772372,0.04247 -0.7906588,-0.40268 -0.1878632,0.150291 -0.4271845,0.0923 -0.8167963,-0.220535 0.7187807,0.615865 -0.128237,0.408398 0.4631235,0.367559 1.2480647,0.941767 0.1960311,0.388795 -0.1388554,0.199299 0.7530862,0.50233 0.9801555,0.653438 z m 1.2635836,0.726949 c 1.535577,0.494978 -0.753903,-0.60443 0,0 z m 6.469027,3.918988 c 0.0196,-0.305482 -0.209917,0.261375 0,0 z m 0.664872,0.280161 c 0.35449,-0.343054 0.0147,0.547254 0.588093,-0.08413 0.0057,-0.451688 -0.01634,-0.71878 -0.658338,-0.169893 -0.177244,0.09802 -0.255657,0.514581 0.07106,0.253206 z M 7.7341856,19.359615 c -0.1086339,-0.428001 -0.7628877,-0.426367 0,0 z m 0.7106128,0.465574 c -0.2638252,-0.436986 -0.9409493,-0.396146 0,0 z m 4.0398746,2.436503 c 0.394512,0.351223 1.811654,0.257291 0.478642,0.04329 -0.196031,-0.291596 -1.252148,-0.220534 -0.478642,-0.04329 z m 5.552581,3.430545 c 0.60688,-0.509681 -0.588093,0.227069 0,0 z m 1.262767,0.867437 c 0.0041,-0.163359 -0.261375,0.07106 0,0 z m 0.0024,-0.228702 c 0.672224,-0.710613 -0.650986,0.04084 0,0 z M 5.9878752,17.89755 C 5.4161178,17.080754 5.631752,16.713195 5.0795977,16.045873 4.9750478,15.535375 4.132114,14.377158 4.6434285,15.604803 5.1122696,16.323584 5.2511249,17.434426 5.9878752,17.9 Z m 13.1014118,8.205535 c 1.237447,-0.798826 -0.506413,-0.347955 0,0 z m 0.944217,0.370009 c 0.620765,-0.530918 -0.392062,-0.111084 0,0 z M 7.5234522,18.457055 c 0.1772448,-0.263825 -0.4574059,-0.0343 0,0 z m 12.3132038,7.763649 c 0.599529,-0.386345 -0.138855,-0.326718 -0.108634,0.03512 z m -8.136925,-5.129481 c -0.02042,-0.261374 -0.316916,0.02205 0,0 z m 0.50233,0.289146 c -0.160092,-0.323451 -0.245039,0.05064 0,0 z m 8.596781,5.100893 c 0.767789,-0.555421 -0.465574,-0.106183 -0.160909,0.106184 z m -0.294047,-0.142123 c 0.626483,-0.524383 -0.661605,0.231971 0,0 z m 1.502906,1.000576 c 0.419833,-0.280978 -0.510498,-0.08985 0,0 z M 7.9097968,18.265108 c 0.5635894,0.125787 2.2502742,1.38692 1.2554159,0.0874 -0.5096809,-0.151107 -0.2041991,-1.396721 -0.7244983,-1.176186 0.348772,0.583192 0.2858787,0.831498 -0.4459708,0.46394 -0.9205294,-0.449238 -0.517032,0.222169 -0.3373368,0.408398 -0.2450389,0.05718 0.3242681,0.212367 0.2532068,0.217268 z M 5.3450565,16.239453 c 0.1004659,-0.416566 -0.9286974,-2.295197 -0.4859938,-0.940949 0.1592753,0.283428 0.1429394,0.82088 0.4859938,0.940949 z m 4.7096475,2.903711 c -0.2907796,-0.242588 -0.01388,-0.0343 0,0 z m 0.71388,0.166627 c 0,-0.44107 -0.7890254,-0.179695 0,0 z m 6.188865,3.901019 c -0.118435,-0.302215 -0.465574,-0.0065 0,0 z m 0.297314,0.217268 c -0.04411,-0.169077 -0.163359,0.03267 0,0 z m 2.452839,1.545378 c 0.236871,-0.173978 -0.294046,-0.02287 0,0 z M 6.6249763,16.567806 c 0.6746737,-0.261375 -0.7228647,-0.18623 0,0 z m 9.7852197,6.165178 c -0.0082,-0.436986 -0.430452,0.108634 0,0 z M 6.3578839,15.945407 c 0.432902,-0.147024 -0.4002302,-0.09638 0,0 z m 1.2578662,0.60933 c -0.00817,-0.143756 -0.1331377,0.05472 0,0 z M 22.961719,25.96423 c 0.557055,-0.112718 1.82799,0.283428 2.033822,-0.147023 -0.677941,-0.01634 -2.341755,-0.477826 -2.420167,0.10945 l 0.147023,0.0245 0.239322,0.0147 z M 8.0159803,16.65602 c 0.0098,-0.442704 -0.344688,-0.01634 0,0 z M 4.7079554,14.360822 c -0.1502905,-0.842934 -0.5717574,-0.12742 0,0 z m 0.7882084,0.198482 c 0.0098,-0.271177 -0.7220479,-0.243406 0,0 z m 0.4508715,0.220535 c -0.1306874,-0.106184 -0.1012827,0.133137 0,0 z m 2.8367335,1.819005 c 0.1339546,-0.12252 -0.3161001,-0.08985 0,0 z M 5.6472711,14.279142 c -0.076779,-0.637101 -0.9148118,-0.09556 0,0 z M 4.0300145,13.229559 c -0.02287,-0.294046 -0.1576417,0.111084 0,0 z M 4.2709694,13.04823 c -0.039206,-0.348772 -0.2066495,0.04411 0,0 z m 1.3289275,0.792293 C 6.1618528,13.619988 4.5764512,13.383117 5.4855455,13.799683 Z M 23.388086,24.83215 c 0.359391,-0.329985 -0.457406,-0.102099 0,0 z m 2.148175,1.113294 c 0.144572,-0.424734 -0.363475,0.05717 0,0 z M 5.7346683,13.14788 c 0.059626,-0.412483 -0.4459708,0.08168 0,0 z M 3.8429681,11.881845 c -0.099649,-0.584009 -0.084947,-1.605004 0.8854072,-1.260316 -1.2962557,0.258107 0.8984759,1.612355 0.6207652,0.542352 0.5456199,0.02695 1.0667359,-0.322634 0.7800404,0.20665 C 7.2049016,11.253729 7.9481862,10.320948 8.9871511,10.452452 9.8039474,10.344635 10.679553,10.264589 11.551891,9.93787 12.268222,9.8864118 12.956781,9.1153561 12.564719,8.6579502 11.58783,8.5762706 10.565201,8.6971564 9.4853968,8.9127907 8.2887903,9.1610967 7.2024512,9.6340218 5.9952263,9.8357705 4.8190397,9.9942289 6.2320973,10.271123 5.8947604,10.334016 5.2821632,10.546383 6.6274267,10.690139 5.8155311,10.915575 5.3140182,10.82001 4.7920854,10.647666 5.0069028,10.119199 3.879724,10.266222 2.8889501,10.73343 3.7800748,11.880212 l 0.065344,8.16e-4 z m 2.7182981,-1.376302 c 0.2638251,-0.9736208 1.4155079,0.800461 0.432902,0.130688 -0.1168019,-0.08821 -0.3103826,-0.159275 -0.432902,-0.130688 z m 0.051458,-0.472108 c 0.3814439,-0.2834281 0.2025655,0.159275 0,0 z m 0.4843602,0.0082 c 0.035122,-0.4476062 1.1092095,0.245037 0.1772449,0.160907 z m 0.661605,-0.2662754 c 0.2425885,-0.2834283 0.070245,0.2507564 0,0 z M 7.9285831,9.6609761 C 8.3320805,9.1766159 10.209895,9.3505935 8.827059,9.6136019 8.4595007,9.3358911 8.1760724,9.7769611 7.9285831,9.6609761 Z M 10.378972,9.2827994 c -0.06044,-1.32321 1.21866,0.4696578 0,0 z m 0.69591,-0.00408 c 0.253207,-0.6665098 0.988324,-0.2679132 0.118436,-0.1339586 0.01879,0.071061 -0.02614,0.344688 -0.118436,0.1339546 z M 5.4610416,12.812993 c 0.7596205,-0.465574 -0.806178,-0.403497 0,0 z m 0.5619558,0.163359 c 0.2662756,-0.283428 -0.5717574,-0.114351 0,0 z M 4.3681681,11.787914 c 0.4329021,-0.334887 -0.5145816,-0.126604 0,0 z M 26.805562,25.824558 c 0.01225,-0.387162 -0.331619,0.173977 0,0 z M 24.5267,24.268561 c 0.06534,-0.445154 -0.294046,0.03839 0,0 z m 2.907795,1.707104 c 0.60688,0.0025 1.839425,-0.187863 0.518666,-0.187863 -0.207467,0.03267 -1.208859,0.0245 -0.518666,0.187863 z M 6.5187927,12.68884 c 0.4917114,-0.03267 0.7677885,-0.541536 -0.095565,-0.512948 -1.3395459,-0.138856 1.1810874,0.459039 -0.1633593,0.287512 -0.1813287,0.120069 0.2564741,0.258108 0.2670924,0.224619 z m 0.4329021,0.218901 c -0.051458,-0.315283 -0.1519241,0.167444 0,0 z m 0.5145816,-1.36895 c 0.2123671,-0.264642 -0.2940466,-0.07106 0,0 z M 5.8326839,8.8074239 C 6.7099231,8.5092933 7.90898,8.1744068 8.3239125,8.9544473 7.9024456,8.4480336 8.1540189,7.9481543 8.5526155,8.6898053 9.1162049,9.4396243 9.3971828,8.3483844 9.0312581,8.0968112 9.4478242,8.61466 9.921566,8.8596989 9.3106024,8.129483 9.9762914,7.3290227 7.9792245,8.234033 7.5250858,8.2250482 7.3070012,8.3230638 5.270728,8.7445306 5.8343175,8.8074239 Z M 6.3472655,7.8231844 C 6.8471448,7.4458245 8.07724,8.0478034 7.2882148,7.4474581 7.2106192,7.379664 5.5606907,7.9024137 6.3472655,7.8231844 Z m 1.8230893,0.075145 C 8.755181,7.913032 7.917148,7.1117549 8.614692,7.4752292 8.5003405,7.1011365 7.8027965,7.0317088 7.4613757,6.8814183 7.2686117,7.2228392 7.8534379,7.9024137 8.169538,7.8983297 Z M 6.6674497,6.2435004 c 0.2025654,-0.2744435 -0.3553064,0.1388554 0,0 z M 7.4091007,6.421562 C 8.3525004,6.2965922 7.1689626,6.0156143 7.2187872,6.4117605 Z M 6.0172798,5.335223 C 5.3532245,4.4677853 7.2669781,5.4806127 6.5914876,4.573152 6.0229974,4.1214637 5.4781943,5.0828329 6.0172798,5.335223 Z m 8.5224522,4.5903951 c 0.304665,-0.5390856 -1.257866,-0.7269487 -0.204199,-0.1911304 0.09638,0.032672 0.07515,0.228703 0.204199,0.1911304 z"
     id="path2"
     style="stroke-width:0.217;fill:#48b0d3;fill-opacity:1;stroke:#48b0d3;stroke-opacity:1;stroke-miterlimit:4;stroke-dasharray:none" />
</svg>
