<?xml version="1.0" encoding="UTF-8" standalone="no"?>
<svg
   viewBox="0 0 128 128"
   version="1.1"
   id="svg4"
   sodipodi:docname="mysql.svg"
   inkscape:version="1.1.2 (0a00cf5339, 2022-02-04, custom)"
   xmlns:inkscape="http://www.inkscape.org/namespaces/inkscape"
   xmlns:sodipodi="http://sodipodi.sourceforge.net/DTD/sodipodi-0.dtd"
   xmlns="http://www.w3.org/2000/svg"
   xmlns:svg="http://www.w3.org/2000/svg">
  <defs
     id="defs8" />
  <sodipodi:namedview
     id="namedview6"
     pagecolor="#ffffff"
     bordercolor="#666666"
     borderopacity="1.0"
     inkscape:pageshadow="2"
     inkscape:pageopacity="0.0"
     inkscape:pagecheckerboard="0"
     showgrid="false"
     inkscape:zoom="1.0605469"
     inkscape:cx="-31.116022"
     inkscape:cy="87.219153"
     inkscape:window-width="1352"
     inkscape:window-height="696"
     inkscape:window-x="4"
     inkscape:window-y="36"
     inkscape:window-maximized="1"
     inkscape:current-layer="svg4" />
  <path
     fill="#00618a"
     d="m 113.17991,110.84362 -2.09089,-2.02775 c -1.98139,-2.6312 -4.53026,-4.94268 -7.20542,-6.86174 -2.13326,-1.5314 -6.922483,-3.599907 -7.81287,-6.081641 l -0.163851,-0.155858 c 1.513019,-0.171044 3.279409,-0.717745 4.675731,-1.092603 2.34506,-0.628226 4.28089,-0.465974 6.70268,-1.091003 1.09181,-0.311716 2.31709,-0.62423 3.11636,-0.935946 v -0.623431 c -0.79927,-1.255654 -1.93983,-2.918135 -3.27461,-4.054697 -3.49202,-2.973285 -7.226203,-5.944173 -11.150624,-8.421911 -2.176414,-1.373146 -4.828391,-2.265931 -7.134286,-3.430468 -0.776092,-0.392441 -2.119665,-0.596255 -2.632796,-1.24846 -1.212493,-1.54419 -1.860702,-3.502402 -2.795848,-5.30156 -1.957412,-3.770157 -3.875661,-7.887198 -5.610077,-11.853976 -1.18292,-2.70473 -1.952618,-5.371096 -3.428071,-7.79768 C 67.293805,38.221926 59.672763,31.195542 47.865943,24.288249 45.352238,22.81919 42.3278,22.239719 39.130719,21.480412 37.417083,21.377306 35.70105,21.272602 33.985816,21.167898 32.937973,20.731496 31.848568,19.450266 30.867064,18.828434 26.953837,16.35709 16.920598,10.981998 14.023242,18.049145 c -1.829529,4.460727 2.733505,8.811955 4.365615,11.073089 1.146953,1.584154 2.613613,3.362531 3.431267,5.145702 0.539507,1.17253 0.631423,2.348257 1.092603,3.587924 1.133365,3.054812 2.118865,6.378177 3.586325,9.2004 0.740923,1.429096 1.557778,2.933322 2.495322,4.210555 0.573875,0.784085 1.558577,1.129369 1.714434,2.339465 -0.962321,1.347569 -1.01747,3.440059 -1.558577,5.1473 -2.437774,7.684983 -1.517014,17.237861 2.027749,22.925468 1.087008,1.747204 3.649468,5.491786 7.17345,4.054697 3.081986,-1.254854 2.578446,-5.145701 3.460041,-8.577768 0.199018,-0.77689 -0.147865,-1.349168 0.651405,-1.871091 v 0.155858 a 102.78616,102.78616 0 0 0 2.623205,5.614074 c 2.078102,3.346544 5.506173,6.843351 8.63052,9.202797 1.62012,1.223683 3.133139,3.338552 4.73168,4.054698 v -0.08073 h 0.176639 c -0.405231,-0.799271 -1.04065,-0.932749 -1.558577,-1.441884 -1.220486,-1.195708 -2.578447,-2.703131 -3.586326,-4.07388 -2.842205,-3.858078 -5.353512,-8.090213 -7.641823,-12.4862 -1.093401,-2.098883 -2.043734,-4.419165 -2.964493,-6.554815 -0.354076,-0.823248 -0.350081,-2.071708 -1.090204,-2.497719 -1.009479,1.564971 -2.495322,2.829416 -3.27621,4.678128 -1.24766,2.954103 -1.408314,6.557213 -1.871091,10.292203 -0.27415,0.09751 -0.151862,0.03038 -0.312514,0.155058 -2.172417,-0.523521 -2.934921,-2.75908 -3.742983,-4.678128 -2.042135,-4.85157 -2.420989,-12.662838 -0.62423,-18.24654 0.465176,-1.44588 2.566457,-5.995326 1.715234,-7.330906 -0.406029,-1.330782 -1.745606,-2.102077 -2.494522,-3.119549 -0.927953,-1.25805 -1.853508,-2.914139 -2.496121,-4.367212 -1.671274,-3.781347 -2.450563,-8.02787 -4.210555,-11.851578 -0.841633,-1.827932 -2.263534,-3.678242 -3.431268,-5.302359 -1.292421,-1.800756 -2.740698,-3.126746 -3.743782,-5.303158 -0.355676,-0.773694 -0.840033,-2.012563 -0.311715,-2.807837 0.167846,-0.53631 0.40523,-0.760106 0.935945,-0.935145 0.905573,-0.697764 3.423275,0.231788 4.366414,0.622631 2.500916,1.039051 4.58861,1.998176 6.707475,3.401694 1.015872,0.674584 2.045333,1.510621 3.27461,2.309891 h 1.403519 c 2.195595,0 4.65495,0.185431 6.706676,0.808861 3.624691,1.102194 6.873725,2.831016 9.82463,4.694114 8.988593,5.676418 16.337883,13.763433 21.366092,23.401034 0.808862,1.552183 1.158941,3.036428 1.871092,4.682125 1.437087,3.319369 3.248234,6.736249 4.678128,9.982085 1.427496,3.239443 2.818227,6.507659 4.835585,9.202799 1.060632,1.416306 5.156092,2.177212 7.017593,2.964493 1.305207,0.550696 3.443256,1.126171 4.678927,1.870292 2.360246,1.424299 4.646963,3.12035 6.862534,4.679727 1.10619,0.778489 4.50789,2.488927 4.67813,3.89884 -5.48539,-0.150263 -9.674368,0.36127 -13.255897,1.871092 -1.017471,0.429208 -2.641589,0.441197 -2.807837,1.716032 0.559489,0.585866 0.646609,1.461866 1.091004,2.182808 0.85442,1.382732 2.298702,3.238643 3.587124,4.21055 1.408315,1.06303 2.858197,2.1988 4.367217,3.11876 2.684749,1.6361 5.680409,2.57125 8.265249,4.21055 1.52341,0.96712 3.16352,2.18441 4.64776,3.27461 0.73533,0.53951 0.71215,1.37794 2.31069,1.71604 v -0.15506 c -0.79847,-0.63542 -0.7561,-1.51303 -1.21649,-2.18041 z M 36.479539,31.461699 c -1.143755,-0.02158 -2.009365,0.125485 -2.808635,0.310916 v 0.116693 h 0.158255 c 0.545902,0.799271 1.509023,1.8623 2.182808,2.827819 l 1.560175,3.283401 0.154259,-0.149463 c 0.966318,-0.681778 1.409113,-1.767187 1.403519,-3.429669 -0.386049,-0.406828 -0.444395,-0.915963 -0.77849,-1.401919 -0.445992,-0.64661 -1.310004,-1.013475 -1.871891,-1.557778 z"
     id="path2"
     style="fill:#48b0d3;fill-opacity:1;stroke:#48b0d3;stroke-width:2.46072;stroke-miterlimit:4;stroke-dasharray:none;stroke-opacity:1" />
</svg>
