<?xml version="1.0" encoding="UTF-8" standalone="no"?>
<svg
   viewBox="0 0 128 128"
   version="1.1"
   id="svg4"
   sodipodi:docname="python.svg"
   inkscape:version="1.1.2 (0a00cf5339, 2022-02-04, custom)"
   xmlns:inkscape="http://www.inkscape.org/namespaces/inkscape"
   xmlns:sodipodi="http://sodipodi.sourceforge.net/DTD/sodipodi-0.dtd"
   xmlns="http://www.w3.org/2000/svg"
   xmlns:svg="http://www.w3.org/2000/svg">
  <defs
     id="defs8" />
  <sodipodi:namedview
     id="namedview6"
     pagecolor="#ffffff"
     bordercolor="#666666"
     borderopacity="1.0"
     inkscape:pageshadow="2"
     inkscape:pageopacity="0.0"
     inkscape:pagecheckerboard="0"
     showgrid="false"
     inkscape:zoom="2.1210938"
     inkscape:cx="28.287293"
     inkscape:cy="75.197053"
     inkscape:window-width="1352"
     inkscape:window-height="696"
     inkscape:window-x="4"
     inkscape:window-y="36"
     inkscape:window-maximized="1"
     inkscape:current-layer="svg4" />
  <path
     fill="#48b0d3"
     d="m 50.939868,62.219253 h 25.958433 c 7.226056,0 12.918235,-6.11415 12.918235,-13.370475 V 24.101958 C 89.816536,17.0584 83.912481,11.766829 76.85913,10.591716 72.39548,9.848368 67.78316,9.510078 63.339095,9.531443 58.89681,9.551923 54.782133,9.93027 51.049367,10.591716 40.050484,12.533324 38.182766,16.601708 38.182766,24.101958 v 9.629698 h 25.816885 v 3.56095 H 28.190742 c -7.552775,0 -14.167239,4.547333 -16.23526,13.185306 -2.3867271,9.89944 -2.4926653,15.952165 0,26.28871 1.847242,7.693433 6.258369,13.049991 13.812034,13.049991 h 8.854301 V 78.200795 c 0,-8.579217 7.50292,-15.981542 16.318051,-15.981542 z M 49.303612,27.402068 c -2.693858,0 -4.87672,-2.206898 -4.87672,-4.936366 0,-2.741041 2.181972,-4.968415 4.87672,-4.968415 2.684066,0 4.87761,2.227374 4.87761,4.968415 -8.9e-4,2.729468 -2.194434,4.936366 -4.87761,4.936366 z m 66.579978,23.075844 c -1.86772,-7.520725 -5.43312,-13.185306 -12.99658,-13.185306 h -9.509525 v 11.556172 c 0,8.946886 -7.828747,16.041188 -16.479184,16.041188 H 50.939868 c -7.111216,0 -12.757102,6.521879 -12.757102,13.643778 v 24.748596 c 0,7.04178 6.004652,11.18495 12.874613,13.20578 8.227575,2.41878 16.018932,2.85589 25.862288,0 6.542354,-1.89531 12.896869,-5.70731 12.896869,-13.20578 V 93.377563 H 63.999651 v -3.56095 h 38.887359 c 7.55278,0 10.36859,-5.142011 12.99658,-13.050881 2.71255,-8.141221 2.59593,-15.845335 0,-26.28782 z m -37.349923,49.50254 c 2.694748,0 4.877611,2.206898 4.877611,4.938138 0,2.73838 -2.181972,4.96664 -4.877611,4.96664 -2.684066,0 -4.87672,-2.22737 -4.87672,-4.96664 0,-2.73124 2.192654,-4.938138 4.87672,-4.938138 z"
     id="path2"
     style="stroke-width:0.890238" />
</svg>
