<?xml version="1.0" encoding="UTF-8" standalone="no"?>
<svg
   version="1.0"
   width="512.000000pt"
   height="512.000000pt"
   viewBox="0 0 512.000000 512.000000"
   preserveAspectRatio="xMidYMid meet"
   id="svg8"
   sodipodi:docname="cozinha.svg"
   inkscape:version="1.1.2 (0a00cf5339, 2022-02-04, custom)"
   xmlns:inkscape="http://www.inkscape.org/namespaces/inkscape"
   xmlns:sodipodi="http://sodipodi.sourceforge.net/DTD/sodipodi-0.dtd"
   xmlns="http://www.w3.org/2000/svg"
   xmlns:svg="http://www.w3.org/2000/svg">
  <defs
     id="defs12" />
  <sodipodi:namedview
     id="namedview10"
     pagecolor="#ffffff"
     bordercolor="#666666"
     borderopacity="1.0"
     inkscape:pageshadow="2"
     inkscape:pageopacity="0.0"
     inkscape:pagecheckerboard="0"
     inkscape:document-units="pt"
     showgrid="false"
     inkscape:zoom="0.28121996"
     inkscape:cx="49.783095"
     inkscape:cy="435.60209"
     inkscape:window-width="1352"
     inkscape:window-height="696"
     inkscape:window-x="4"
     inkscape:window-y="36"
     inkscape:window-maximized="1"
     inkscape:current-layer="svg8" />
  <g
     id="g833"
     style="stroke-width:3.2;stroke-miterlimit:4;stroke-dasharray:none;stroke:#48b0d3;stroke-opacity:1">
    <path
       d="m 243.95382,10.026817 c -25.60513,4.058172 -48.11832,18.45502 -62.41854,40.00198 l -5.02441,7.729851 -12.36776,-0.579739 c -13.91373,-0.483115 -23.3828,0.676362 -33.91472,4.251419 -32.658622,11.111661 -55.751553,37.489778 -62.12868,71.114632 -5.314273,28.11733 3.38181,58.26375 22.899684,79.52084 14.300226,15.45971 35.170826,26.66799 54.205586,28.98694 l 5.50751,0.67637 v 39.80873 c 0,44.15678 0.28987,46.86222 5.99064,53.33597 1.64259,1.83584 4.83116,4.34805 6.95687,5.50752 3.96154,2.12571 4.34804,2.12571 62.51517,2.41558 54.97856,0.19325 58.65024,0.0966 60.58271,-1.44935 3.09194,-2.5122 3.67168,-7.05348 1.35272,-9.95218 l -1.93246,-2.41558 -58.07051,-0.48311 -57.97388,-0.48312 -2.22234,-2.22233 c -1.93246,-1.93246 -2.22233,-3.28519 -2.5122,-12.27114 l -0.38649,-10.14543 h 92.37172 92.37172 v 8.69608 c 0,9.85556 -1.44934,14.01036 -5.41089,15.45971 -1.35273,0.57973 -10.4353,0.96623 -20.19424,0.96623 -9.75894,0 -18.45502,0.28987 -19.32463,0.57974 -2.70545,1.06285 -4.44466,5.60414 -3.28518,8.88932 1.54597,4.54129 3.96154,5.02441 24.83214,5.02441 17.1023,0 19.51788,-0.28987 23.3828,-2.02909 5.31428,-2.41558 9.1792,-5.99063 11.88465,-11.01504 2.02909,-3.7683 2.12571,-4.92778 2.41558,-45.99261 l 0.28987,-42.22431 5.89401,-0.57974 c 13.23737,-1.54597 29.85655,-8.50284 42.03106,-17.68204 42.70743,-32.07888 49.56768,-92.56496 15.07321,-134.016292 C 418.45522,78.72587 404.44486,68.58044 391.20749,63.459414 378.16337,58.241764 374.39506,57.662025 356.80965,57.468779 l -16.7158,-0.193246 -4.83116,-7.439982 C 315.84144,20.075624 279.89763,4.5192982 243.95382,10.026817 Z m 33.33499,15.652949 c 3.47843,0.772985 10.82179,3.671679 16.32931,6.377127 8.69608,4.251418 11.30491,6.183881 18.93813,13.720486 14.87997,14.686717 21.74021,29.180188 23.67267,50.340656 0.67637,7.150115 1.2561,8.985955 2.99532,10.338675 2.70545,2.31896 7.15011,2.22233 9.56569,-0.19325 3.09194,-3.09194 2.5122,-14.30022 -1.64259,-32.75524 l -0.57974,-2.318955 11.98127,0.579739 c 18.06853,0.869608 31.01603,5.507519 45.31625,16.32931 13.23737,9.952184 24.15579,26.088246 28.69707,42.320936 2.60883,9.75894 2.41558,30.0498 -0.57973,39.61549 -8.01973,26.08824 -27.73085,45.99261 -53.72247,54.10896 -14.49347,4.54128 -35.26745,3.57505 -51.21026,-2.41558 -5.60415,-2.12571 -6.76362,-2.31896 -8.98596,-1.2561 -3.7683,1.83584 -5.50752,5.89401 -3.86492,9.17919 2.02908,4.25142 13.52724,8.88933 28.02071,11.30491 l 7.05349,1.15948 0.28987,23.3828 0.19324,23.3828 h -18.35839 -18.3584 v -12.56101 c 0,-12.17451 -0.0966,-12.75425 -2.41558,-14.97659 -2.89869,-2.99531 -6.86024,-3.09194 -9.85556,-0.28987 -2.12571,1.93247 -2.22233,2.70545 -2.22233,14.97659 v 12.85088 l -17.58541,-0.19325 -17.68204,-0.28987 -0.48311,-13.33399 c -0.3865,-11.78802 -0.67636,-13.52724 -2.31896,-14.78334 -2.22233,-1.54597 -5.79739,-1.73922 -8.30959,-0.38649 -2.80207,1.54597 -3.86492,6.37712 -3.86492,17.9719 V 288.8812 H 230.9097 213.51754 v -12.75426 c 0,-11.6914 -0.19325,-12.9475 -2.12571,-14.97658 -2.8987,-3.18857 -7.72985,-2.99532 -10.33868,0.28987 -1.83584,2.31895 -2.02909,3.86492 -2.02909,14.97658 v 12.46439 h -16.90904 -16.90905 l 0.19324,-23.3828 0.28987,-23.47942 5.60414,-0.67637 c 13.91374,-1.73921 28.31058,-7.24673 30.43629,-11.6914 1.6426,-3.28518 -0.0966,-7.34335 -3.86492,-9.17919 -2.22234,-1.06286 -3.38181,-0.86961 -8.98596,1.2561 -16.52255,6.18388 -36.91003,7.05349 -52.17649,2.02908 -25.41189,-8.30959 -44.833138,-28.02071 -52.756235,-53.72246 -2.995317,-9.56569 -3.188564,-29.85655 -0.579739,-39.61549 7.439982,-26.86123 28.793694,-48.31157 55.944794,-56.138045 7.43999,-2.125709 30.72616,-3.768302 30.72616,-2.222332 0,0.483116 -0.86961,5.024403 -1.93246,10.048807 -2.60882,12.367762 -2.60882,21.54696 0,24.15578 2.5122,2.51221 7.82647,2.51221 10.14543,0 1.15948,-1.35272 1.93246,-4.44466 2.5122,-10.338671 1.83584,-19.807744 8.40621,-34.591084 20.96722,-47.925078 12.17452,-12.657631 28.21396,-21.063844 46.08924,-23.962539 6.76362,-1.062854 22.03008,-0.289869 29.47006,1.642594 z"
       id="path2"
       style="fill:#48b0d3;stroke:#48b0d3;stroke-width:3.2;stroke-miterlimit:4;stroke-dasharray:none;stroke-opacity:1" />
    <path
       d="m 101.53132,324.14865 c -2.512205,3.28518 -2.608828,5.31427 -0.0966,8.40621 0.96623,1.35272 14.5901,9.66231 30.14642,18.64826 15.55633,8.88933 29.56668,17.48879 31.11265,19.13139 2.22234,2.31895 2.60883,3.47843 2.22234,5.99063 -0.48312,2.8987 -8.98596,18.84151 -10.04881,18.84151 -0.28987,0 -15.16983,-8.40621 -33.04511,-18.74489 -17.87529,-10.33867 -33.528234,-19.03475 -34.880958,-19.42125 -3.671679,-0.86961 -7.729851,2.60883 -7.729851,6.667 0,1.73922 0.579739,3.86493 1.256101,4.73453 0.579739,0.86961 15.942818,10.14543 34.011348,20.58073 18.06852,10.4353 32.94849,19.03476 33.04511,19.13138 0.0966,0.0966 -1.93246,3.86493 -4.54129,8.30959 -5.31427,9.1792 -7.72985,11.59478 -11.49815,11.59478 -1.54597,0 -14.39685,-6.86024 -32.948491,-17.58541 -19.228005,-11.01504 -31.402521,-17.48879 -33.045114,-17.48879 -5.797388,0 -8.792706,7.24674 -4.831157,11.6914 1.642593,1.83584 48.214942,28.98694 59.809722,34.88095 10.33868,5.21765 18.84151,3.76831 27.1511,-4.44466 l 5.21765,-5.12103 32.07889,18.45502 32.07888,18.55165 -1.93246,5.79738 c -1.6426,5.02441 -1.73922,6.47376 -0.77299,11.11167 2.02909,9.75893 8.69608,16.52255 18.3584,18.64826 6.76362,1.44935 11.6914,0.19325 21.45033,-5.41089 l 7.43999,-4.34805 9.08257,5.12103 c 8.30959,4.63791 9.56569,5.0244 15.36308,5.0244 9.56569,0 16.90905,-4.63791 21.54696,-13.43061 2.5122,-5.02441 2.70545,-14.2036 0.28987,-18.74489 -0.96623,-1.83584 -1.54597,-3.38181 -1.35272,-3.47843 0.19324,-0.19325 6.2805,-3.67168 13.52724,-7.72986 16.61918,-9.27582 18.64826,-11.78802 14.2036,-17.39216 -3.38181,-4.34804 -6.57038,-3.47843 -24.05916,6.18388 l -15.65295,8.79271 -6.37713,-3.57506 c -3.57506,-2.02909 -7.63323,-4.34804 -9.1792,-5.21765 l -2.60882,-1.64259 42.90067,-24.83215 c 23.57605,-13.62386 43.38379,-25.31526 43.86691,-25.99162 0.57974,-0.57974 1.44934,-4.34805 1.93246,-8.21297 0.67636,-4.34804 1.93246,-8.59946 3.47843,-11.20829 10.4353,-17.87528 42.90068,-28.4072 59.61648,-19.32462 7.05349,3.86492 9.85556,8.50283 10.33868,17.00567 0.38649,6.18388 0.0966,7.24673 -3.09194,13.91373 -5.70077,11.49815 -18.55165,22.89969 -30.72616,27.1511 -2.31896,0.86961 -7.24674,1.73922 -11.01504,2.02909 -6.08726,0.38649 -7.63323,0.0966 -12.46439,-2.12571 -3.09194,-1.35272 -6.47375,-2.5122 -7.5366,-2.5122 -2.70545,0 -27.44097,14.2036 -29.27681,16.81242 -0.67636,1.06286 -1.35273,2.99532 -1.35273,4.25142 0,2.80207 4.05818,6.95687 6.86025,6.95687 1.15947,0 7.05349,-2.80207 13.04412,-6.28051 l 10.91841,-6.2805 4.1548,1.64259 c 6.2805,2.60883 23.47942,2.31896 31.20927,-0.57973 13.81711,-5.02441 27.24773,-15.65295 35.26745,-27.92409 5.99063,-9.08258 8.69608,-17.39217 8.69608,-26.37812 0,-20.29086 -14.2036,-33.91472 -36.71679,-35.36407 -19.03476,-1.2561 -38.45601,6.18388 -52.1765,20.00099 -7.63322,7.63323 -10.72516,12.75426 -12.65763,20.77398 -0.57974,2.60882 -1.35272,5.41089 -1.73921,6.18388 -0.67637,1.35272 -83.96551,50.05078 -87.2507,51.01702 -0.96623,0.28986 -18.55164,-9.27583 -43.96353,-23.86592 -23.28617,-13.43062 -42.41756,-24.54228 -42.6108,-24.6389 -0.0966,-0.0966 0.67636,-2.12571 1.73921,-4.44467 3.28519,-7.43998 2.12571,-16.23268 -3.18856,-23.18955 -3.38181,-4.54129 -62.32193,-38.8425 -67.44295,-39.32562 -2.8987,-0.28987 -3.86493,0.0966 -5.60414,2.22234 z m 125.51346,110.92336 c 58.84349,33.91472 64.54425,37.29653 66.57334,39.61549 3.18856,3.86492 0.28987,11.78802 -5.12103,13.62386 -1.93246,0.77299 -3.47843,0.48312 -6.66699,-1.06285 -3.47844,-1.73922 -112.75921,-64.44764 -119.71607,-68.79568 l -2.60883,-1.54597 4.34804,-7.53661 c 3.38181,-5.89401 4.73454,-7.43998 5.99064,-6.95686 0.8696,0.28987 26.66798,14.97659 57.2009,32.65862 z m 18.93813,49.08456 c 0.86961,1.35272 -7.82647,5.12102 -10.33868,4.44466 -5.41089,-1.35272 -8.88932,-7.43998 -6.86024,-11.78802 l 1.06286,-2.31896 7.82647,4.44467 c 4.25142,2.41557 8.01972,4.73453 8.30959,5.21765 z"
       id="path4"
       style="fill:#48b0d3;stroke:#48b0d3;stroke-width:3.2;stroke-miterlimit:4;stroke-dasharray:none;stroke-opacity:1" />
  </g>
</svg>
