<?xml version="1.0" encoding="UTF-8" standalone="no"?>
<svg
   version="1.0"
   width="512.000000pt"
   height="512.000000pt"
   viewBox="0 0 512.000000 512.000000"
   preserveAspectRatio="xMidYMid meet"
   id="svg12"
   sodipodi:docname="filme.svg"
   inkscape:version="1.1.2 (0a00cf5339, 2022-02-04, custom)"
   xmlns:inkscape="http://www.inkscape.org/namespaces/inkscape"
   xmlns:sodipodi="http://sodipodi.sourceforge.net/DTD/sodipodi-0.dtd"
   xmlns="http://www.w3.org/2000/svg"
   xmlns:svg="http://www.w3.org/2000/svg">
  <defs
     id="defs16" />
  <sodipodi:namedview
     id="namedview14"
     pagecolor="#ffffff"
     bordercolor="#666666"
     borderopacity="1.0"
     inkscape:pageshadow="2"
     inkscape:pageopacity="0.0"
     inkscape:pagecheckerboard="0"
     inkscape:document-units="pt"
     showgrid="false"
     inkscape:zoom="0.19885254"
     inkscape:cx="45.259668"
     inkscape:cy="545.63045"
     inkscape:window-width="1352"
     inkscape:window-height="696"
     inkscape:window-x="4"
     inkscape:window-y="36"
     inkscape:window-maximized="1"
     inkscape:current-layer="svg12" />
  <g
     id="g877"
     transform="matrix(0.97638925,0,0,0.97638925,20.032211,16.513218)"
     style="stroke:#48b0d3;stroke-width:2;stroke-miterlimit:4;stroke-dasharray:none;stroke-opacity:1">
    <path
       d="m 15.076807,65.199735 c -4.62708,1.510883 -12.5592178,9.631881 -13.9756708,14.447821 -1.60531355,5.665813 -1.60531355,250.051184 0,255.716994 1.5108833,5.19367 9.3485908,13.03137 14.5422518,14.54226 3.021766,0.84987 36.166769,1.13316 141.173162,1.13316 h 137.30152 l 11.70934,20.11363 11.70935,20.01921 4.0605,16.05313 c 3.11619,12.1815 4.53265,16.43086 6.13796,17.65845 1.8886,1.60531 6.98783,1.69974 76.5829,1.69974 h 74.50543 l 2.26632,-2.36075 c 1.32203,-1.22759 2.36076,-3.1162 2.36076,-4.24936 0,-1.03873 -5.57138,-35.12804 -12.37036,-75.82746 l -12.37036,-73.84442 1.03874,-16.99743 1.03873,-16.99744 -3.58835,-21.2468 c -1.98303,-11.70934 -4.53265,-23.1354 -5.57138,-25.49615 -1.03873,-2.36076 -11.2372,-16.80858 -22.75768,-32.2007 l -20.96351,-27.95134 v -22.94654 c 0,-15.203268 -0.37772,-24.174138 -1.13316,-26.818184 -1.51088,-5.193661 -9.34859,-13.031368 -14.54225,-14.542251 -2.83291,-0.849872 -16.242,-1.133163 -48.4427,-1.133163 H 299.2173 l -2.26633,2.360755 c -1.51088,1.416454 -2.36075,3.399488 -2.36075,5.193662 0,1.794174 0.84987,3.777208 2.36075,5.193661 l 2.26633,2.360755 h 24.17413 24.0797 v 88.292245 88.38667 l 2.36076,2.26633 c 1.41645,1.51088 3.39948,2.36075 5.19366,2.36075 1.79417,0 3.77721,-0.84987 5.19366,-2.36075 l 2.36075,-2.26633 V 167.37322 79.080975 h 12.74808 c 12.37036,0 12.93694,0.09443 15.10884,2.360755 l 2.36075,2.266325 v 20.680215 20.58579 l -5.38252,2.26632 c -7.36556,3.02177 -14.44782,9.91517 -17.84731,17.28073 -2.36075,5.0048 -2.73848,7.08226 -2.73848,13.88124 0,9.72631 1.98304,14.54225 10.85948,26.44046 7.45998,10.10403 8.121,11.61491 10.29289,25.21286 2.92734,17.94174 0.47215,25.68502 -11.33162,36.16677 -5.00481,4.53265 -7.27113,7.36556 -10.00961,12.93694 l -3.58834,7.27112 -0.28329,20.39693 c -0.18887,11.99263 0.0944,22.75768 0.66101,25.96831 1.22759,6.61011 4.81594,14.82554 8.68758,19.54705 l 2.8329,3.58835 H 197.3271 19.703887 l -2.266325,-2.36076 -2.360755,-2.26632 V 207.50606 83.708055 l 2.360755,-2.266325 2.266325,-2.360755 H 147.2791 274.8543 l 2.26633,-2.360755 c 3.1162,-3.021766 3.1162,-7.365556 0,-10.387323 l -2.26633,-2.360755 -128.23622,0.09443 C 55.965086,64.161003 17.437562,64.444293 15.076807,65.199735 Z M 416.87733,166.52335 c 10.76505,14.35339 20.11364,27.47919 20.86908,29.17893 0.66101,1.69974 2.73847,11.99264 4.53265,22.75768 l 3.30506,19.73591 -1.03874,16.52529 -1.03873,16.52528 11.42606,68.65076 c 6.32682,37.77209 11.52048,69.31178 11.52048,70.16165 0,1.22759 -7.36555,1.41645 -64.11811,1.41645 h -64.11811 l -3.02176,-12.46479 c -3.02177,-12.08706 -3.49392,-13.22023 -13.22023,-30.0288 l -10.19847,-17.46959 39.75512,-0.47215 c 21.90781,-0.28329 40.69942,-0.84987 41.73815,-1.32202 1.03873,-0.47216 3.30506,-1.88861 5.0048,-3.1162 2.45519,-1.88861 3.02177,-2.92734 3.02177,-5.85467 0,-3.96607 -1.60531,-5.85468 -8.59315,-9.82075 -5.19366,-2.92733 -8.49872,-6.61011 -11.99264,-13.31465 -2.45518,-4.72151 -2.54961,-5.2881 -2.8329,-24.55186 -0.47215,-25.77944 -0.37772,-25.87387 10.48175,-36.92221 14.25896,-14.54225 18.03617,-25.49615 15.29769,-44.57106 -2.64404,-18.31946 -4.62708,-23.1354 -14.73111,-36.92221 -6.79897,-9.25416 -8.30986,-13.69238 -6.98783,-20.20806 1.41645,-6.61011 8.40429,-13.97567 13.31466,-13.97567 1.51088,0 6.61011,6.13796 21.62451,26.06274 z"
       id="path2"
       style="fill:#48b0d3;stroke:#48b0d3;stroke-width:2;stroke-miterlimit:4;stroke-dasharray:none;stroke-opacity:1" />
    <path
       d="m 185.52333,125.06849 c -5.66581,0.75544 -17.09187,3.96606 -22.56882,6.42125 -45.51536,20.11363 -63.268239,75.92189 -37.77208,118.69877 6.13796,10.19846 18.31946,22.37996 28.51792,28.51792 32.67285,19.45262 74.50543,14.25896 101.32361,-12.55922 10.57618,-10.57618 18.03617,-23.89084 22.1911,-39.37739 2.54961,-9.72631 2.45518,-29.46223 -0.28329,-39.56626 -8.68758,-32.10627 -34.18374,-55.80825 -65.91229,-61.37963 -7.64884,-1.32203 -18.69718,-1.60532 -25.49615,-0.75544 z m 23.32426,15.76984 c 9.63188,1.8886 16.52529,4.62708 24.55185,9.91517 9.53745,6.2324 18.50832,16.242 23.32426,25.87388 5.76025,11.70934 7.1767,17.94174 7.08227,31.82298 -0.0944,10.10403 -0.47215,12.93694 -2.54962,19.35819 -3.58834,10.85947 -8.49871,18.69718 -17.18629,27.38476 -8.68758,8.68758 -16.52529,13.59795 -27.38476,17.1863 -6.42126,2.07746 -9.25416,2.45518 -19.3582,2.54961 -13.88124,0.0944 -20.11363,-1.32202 -31.82298,-7.08226 -13.69237,-6.79898 -27.10146,-21.53009 -32.38956,-35.60019 -7.27112,-19.26376 -5.57138,-41.45486 4.43822,-58.73559 4.43822,-7.55442 16.80858,-20.11363 24.17414,-24.45742 14.35339,-8.40429 30.9731,-11.33163 47.12067,-8.21543 z"
       id="path4"
       style="fill:#48b0d3;stroke:#48b0d3;stroke-width:2;stroke-miterlimit:4;stroke-dasharray:none;stroke-opacity:1" />
    <path
       d="m 176.08031,156.9859 -2.36076,2.26632 v 48.25384 48.25383 l 2.36076,2.26633 c 1.51088,1.60531 3.30506,2.36075 5.38252,2.36075 2.73848,0 5.57138,-2.45518 27.85691,-24.83514 22.94654,-22.85211 24.83514,-25.02401 24.83514,-28.04577 0,-3.02177 -1.8886,-5.19367 -24.83514,-28.04578 -22.28553,-22.37995 -25.11843,-24.83514 -27.85691,-24.83514 -2.07746,0 -3.87164,0.75544 -5.38252,2.36076 z m 26.15717,63.92924 -13.40909,13.50352 v -26.9126 -26.91261 l 13.40909,13.50352 13.50351,13.40909 z"
       id="path6"
       style="fill:#48b0d3;stroke:#48b0d3;stroke-width:2;stroke-miterlimit:4;stroke-dasharray:none;stroke-opacity:1" />
    <path
       d="m 372.49514,202.31239 c -1.51089,1.41646 -2.36076,3.39949 -2.36076,5.19367 0,1.79417 0.84987,3.7772 2.36076,5.19366 1.41645,1.51088 3.39948,2.36075 5.19366,2.36075 1.79417,0 3.77721,-0.84987 5.19366,-2.36075 1.51088,-1.41646 2.36075,-3.39949 2.36075,-5.19366 0,-1.79418 -0.84987,-3.77721 -2.36075,-5.19367 -1.41645,-1.51088 -3.39949,-2.36075 -5.19366,-2.36075 -1.79418,0 -3.77721,0.84987 -5.19366,2.36075 z"
       id="path8"
       style="fill:#48b0d3;stroke:#48b0d3;stroke-width:2;stroke-miterlimit:4;stroke-dasharray:none;stroke-opacity:1" />
  </g>
</svg>
