<?xml version="1.0" encoding="UTF-8" standalone="no"?>
<svg
   version="1.0"
   width="512.000000pt"
   height="512.000000pt"
   viewBox="0 0 512.000000 512.000000"
   preserveAspectRatio="xMidYMid meet"
   id="svg20"
   sodipodi:docname="leitura.svg"
   inkscape:version="1.1.2 (0a00cf5339, 2022-02-04, custom)"
   xmlns:inkscape="http://www.inkscape.org/namespaces/inkscape"
   xmlns:sodipodi="http://sodipodi.sourceforge.net/DTD/sodipodi-0.dtd"
   xmlns="http://www.w3.org/2000/svg"
   xmlns:svg="http://www.w3.org/2000/svg">
  <defs
     id="defs24" />
  <sodipodi:namedview
     id="namedview22"
     pagecolor="#ffffff"
     bordercolor="#666666"
     borderopacity="1.0"
     inkscape:pageshadow="2"
     inkscape:pageopacity="0.0"
     inkscape:pagecheckerboard="0"
     inkscape:document-units="pt"
     showgrid="false"
     inkscape:zoom="0.39770508"
     inkscape:cx="153.37999"
     inkscape:cy="383.44997"
     inkscape:window-width="1352"
     inkscape:window-height="696"
     inkscape:window-x="4"
     inkscape:window-y="36"
     inkscape:window-maximized="1"
     inkscape:current-layer="svg20"
     showguides="false" />
  <g
     id="g881"
     transform="matrix(0.98800801,0,0,0.98193427,3.0699504,4.6248281)">
    <path
       d="m 105.97344,69.071476 c -4.45436,1.990245 -6.065509,4.928226 -6.065509,11.183282 v 5.496867 H 81.237537 c -16.869695,0 -19.049487,0.189547 -21.797921,1.895471 -1.990245,1.232057 -3.317075,2.937981 -3.98049,5.402094 -0.663415,2.369339 -1.042509,25.02022 -1.042509,65.77286 v 62.17146 l -15.068998,13.93171 c -16.111506,14.68991 -19.902449,19.33381 -23.219524,27.86343 -1.990245,5.4021 -1.990245,6.06551 -2.274566,90.50876 l -0.284321,85.10667 2.843208,2.84321 c 3.696169,3.60139 9.193036,3.79094 13.078752,0.47386 l 2.65366,-2.27456 0.473868,-84.25371 0.473868,-84.15893 2.179792,-4.45435 c 1.421604,-2.84321 5.30732,-7.20279 10.61464,-12.13102 l 8.434848,-7.67666 0.28432,21.70315 c 0.284321,23.69339 0.758189,25.68364 6.255056,27.76865 5.402093,2.08502 7.392338,0.66342 28.242524,-19.42858 21.134506,-20.37632 22.556106,-21.22928 29.095486,-19.42858 5.68641,1.51638 9.47736,8.62439 7.77143,14.31081 -0.37909,1.13728 -5.97073,7.48711 -12.32056,14.02649 -20.186772,20.75541 -21.418828,23.40907 -22.177017,49.28225 -0.568641,17.81744 -0.663415,18.6704 -3.127528,22.74566 -1.32683,2.36934 -5.022999,6.53938 -8.150527,9.19304 -3.032754,2.74843 -6.160282,6.16028 -6.728923,7.67666 -0.947736,2.36934 -0.568642,7.8662 2.274565,32.50733 1.800698,16.39583 3.790943,30.70664 4.264811,31.84392 1.990245,4.73868 9.193036,6.72892 13.742168,3.69617 4.549131,-3.03275 4.643905,-4.54913 1.32683,-33.45507 l -3.127528,-26.72615 5.212546,-5.49686 c 9.003493,-9.38259 13.173523,-19.14427 13.173523,-30.32755 v -5.023 h 92.40423 c 100.45999,0 96.38472,0.18955 98.84884,-5.21254 1.4216,-3.12753 1.4216,-5.4021 0,-8.52962 -1.99025,-4.45436 -4.92823,-5.21255 -21.13451,-5.21255 H 265.6669 l 0.28433,-6.91847 0.28432,-6.8237 6.91847,-3.41185 c 3.79094,-1.99024 10.23554,-4.45435 14.21603,-5.68641 7.10802,-2.08502 8.6244,-2.17979 51.74637,-2.55889 l 44.44881,-0.28432 5.68641,5.49687 c 6.8237,6.72892 10.51987,11.94147 11.8467,16.68015 l 0.94773,3.50662 h -13.64739 c -15.069,0 -18.10175,0.75819 -20.092,5.21255 -2.17979,4.83345 -0.85296,9.57213 3.6014,12.13101 2.17979,1.32683 5.30732,1.61115 16.4906,1.61115 h 13.83694 v 5.023 c 0,11.08851 4.26481,20.94496 12.98398,30.138 l 5.023,5.30732 -3.03276,27.67388 c -2.93798,27.67388 -2.93798,27.67388 -1.04251,30.23277 2.74844,3.6014 6.63415,5.023 10.61464,3.6014 5.97074,-1.99025 6.34983,-3.22231 9.47736,-33.26553 4.07526,-38.66761 4.45436,-35.25577 -4.17004,-43.69061 -10.14077,-9.85646 -10.89896,-11.8467 -10.89896,-29.37981 0,-26.06273 -1.99024,-30.89618 -20.28154,-49.56658 -6.91847,-7.10802 -13.07875,-13.83694 -13.74217,-14.97422 -3.98049,-7.86621 4.17004,-17.53311 13.36307,-15.73241 2.1798,0.37909 8.15053,5.59164 22.93521,19.80767 20.85018,20.092 22.84043,21.5136 28.24252,19.42858 5.4021,-2.08501 5.97074,-4.17003 6.44461,-27.76865 l 0.47386,-21.70315 9.09827,8.81394 c 7.39233,7.10802 9.38258,9.76168 10.70941,13.45785 1.32683,4.17004 1.51638,13.2683 1.51638,87.09691 v 82.35823 l 2.74843,2.74844 c 3.69617,3.60139 9.19304,3.79094 13.07875,0.47386 l 2.65366,-2.27456 v -85.67531 c 0,-85.20144 0,-85.58053 -1.99024,-90.98263 -3.31708,-8.52962 -7.10802,-13.17352 -23.21953,-27.86343 l -15.06899,-13.93171 v -62.17146 c 0,-40.75264 -0.3791,-63.403521 -1.04251,-65.77286 -0.66342,-2.464113 -1.99025,-4.170037 -3.98049,-5.402094 -2.74844,-1.705924 -4.92823,-1.895471 -21.70315,-1.895471 h -18.76517 v -5.591641 c 0,-6.63415 -2.08502,-9.951225 -7.48711,-11.562375 -2.46411,-0.758189 -18.67039,-0.947736 -56.10595,-0.568642 -48.52407,0.379094 -53.0732,0.568642 -60.56032,2.369339 -9.6669,2.274566 -19.04948,5.781188 -26.63137,9.761678 l -5.59164,3.032754 -5.59164,-3.032754 c -7.96098,-4.26481 -17.24879,-7.581885 -27.10524,-9.761678 -7.86621,-1.800697 -12.41534,-1.990245 -61.60282,-2.274565 -44.16448,-0.379095 -53.54707,-0.189547 -56.01118,0.947735 z m 116.00285,20.376318 c 4.35958,1.042509 11.75192,3.790943 16.39583,5.970735 l 8.43484,3.885716 v 94.299705 c 0,89.37147 -0.0948,94.20493 -1.61115,93.54151 -0.94773,-0.47387 -5.023,-1.99024 -9.19303,-3.50662 -13.36308,-4.83345 -20.18677,-5.49687 -57.33801,-5.49687 H 144.8306 v -8.81394 c 0,-6.91847 -0.37909,-9.6669 -1.99024,-13.17353 -3.88572,-8.43484 -12.69966,-15.82718 -20.94496,-17.43833 l -3.03276,-0.66342 V 162.32867 86.509813 l 47.67111,0.473868 c 44.8279,0.379094 48.0502,0.473868 55.44254,2.464113 z M 393.706,162.2339 v 75.6293 l -5.59164,1.61116 c -7.10802,2.08501 -14.21604,8.34007 -17.81743,15.73241 -2.36934,4.73868 -2.65366,6.4446 -2.65366,14.12126 l 0.0948,8.81394 h -33.83416 c -37.15124,0 -43.97494,0.66342 -57.33801,5.49687 -4.17004,1.51638 -8.24531,3.03275 -9.09827,3.50662 -1.61115,0.66342 -1.70592,-4.17004 -1.70592,-93.54151 V 99.304245 l 8.34007,-3.885716 c 9.66691,-4.454358 17.81743,-6.728924 27.67388,-7.771433 3.88572,-0.379094 26.15751,-0.758188 49.56658,-0.852962 L 393.706,86.69936 Z M 99.907931,173.41718 c 0,43.97493 -0.379095,68.71084 -0.947736,68.71084 -0.473868,0 -6.349829,5.21254 -12.983979,11.4676 l -12.131017,11.56237 -0.284321,-79.04115 c -0.09477,-43.50107 0,-79.6098 0.284321,-80.27322 0.284321,-0.85296 3.885716,-1.13728 13.2683,-1.13728 H 99.907931 Z M 438.72344,105.84362 c 0.28432,0.66342 0.3791,36.77215 0.28432,80.27322 l -0.28432,79.04115 -12.13101,-11.56237 c -6.63415,-6.25506 -12.51011,-11.4676 -12.98398,-11.4676 -0.56864,0 -0.94774,-24.73591 -0.94774,-68.71084 v -68.71084 h 12.79443 c 9.38259,0 12.98398,0.28432 13.2683,1.13728 z m -213.52485,194.0015 c 3.98049,1.23206 10.42509,3.69617 14.21604,5.68641 l 6.91847,3.41185 0.28432,6.8237 0.28432,6.91847 H 178.66477 110.4278 l 0.75819,-2.65366 c 1.51637,-5.023 3.79094,-8.43485 10.61464,-15.73241 l 6.82369,-7.29757 44.63835,0.3791 c 43.31153,0.28432 44.8279,0.37909 51.93592,2.46411 z"
       id="path2"
       style="fill:#48b0d3;stroke:none;stroke-width:0;stroke-miterlimit:4;stroke-dasharray:none" />
    <path
       d="m 149.66405,123.94537 c -5.68641,4.83346 -3.41184,13.74217 4.07527,15.82719 4.54913,1.23206 47.00769,1.23206 51.46205,0 4.92822,-1.4216 7.01324,-4.07526 7.01324,-9.19304 0,-3.50662 -0.47387,-4.6439 -2.65366,-6.53937 l -2.65366,-2.27457 h -27.38956 c -27.01047,0 -27.38956,0 -29.85368,2.17979 z"
       id="path4"
       style="fill:#48b0d3;stroke:none;stroke-width:0;stroke-miterlimit:4;stroke-dasharray:none" />
    <path
       d="m 149.66405,174.17537 c -5.68641,4.83345 -3.41184,13.74216 4.07527,15.82718 4.54913,1.23206 47.00769,1.23206 51.46205,0 4.92822,-1.4216 7.01324,-4.07526 7.01324,-9.19303 0,-3.50663 -0.47387,-4.64391 -2.65366,-6.53938 l -2.65366,-2.27457 h -27.38956 c -27.01047,0 -27.38956,0 -29.85368,2.1798 z"
       id="path6"
       style="fill:#48b0d3;stroke:none;stroke-width:0;stroke-miterlimit:4;stroke-dasharray:none" />
    <path
       d="m 149.66405,224.40536 c -5.68641,4.83345 -3.41184,13.74217 4.07527,15.82718 4.54913,1.23206 47.00769,1.23206 51.46205,0 4.92822,-1.4216 7.01324,-4.07526 7.01324,-9.19303 0,-3.50662 -0.47387,-4.64391 -2.65366,-6.53938 l -2.65366,-2.27456 h -27.38956 c -27.01047,0 -27.38956,0 -29.85368,2.17979 z"
       id="path8"
       style="fill:#48b0d3;stroke:none;stroke-width:0;stroke-miterlimit:4;stroke-dasharray:none" />
    <path
       d="m 301.30177,123.94537 c -5.68642,4.83346 -3.41185,13.74217 4.07526,15.82719 4.54913,1.23206 47.00769,1.23206 51.46205,0 4.92822,-1.4216 7.01324,-4.07526 7.01324,-9.19304 0,-3.50662 -0.47386,-4.6439 -2.65366,-6.53937 l -2.65366,-2.27457 h -27.38956 c -27.01047,0 -27.38956,0 -29.85367,2.17979 z"
       id="path10"
       style="fill:#48b0d3;stroke:none;stroke-width:0;stroke-miterlimit:4;stroke-dasharray:none" />
    <path
       d="m 301.30177,174.17537 c -5.68642,4.83345 -3.41185,13.74216 4.07526,15.82718 4.54913,1.23206 47.00769,1.23206 51.46205,0 4.92822,-1.4216 7.01324,-4.07526 7.01324,-9.19303 0,-3.50663 -0.47386,-4.64391 -2.65366,-6.53938 l -2.65366,-2.27457 h -27.38956 c -27.01047,0 -27.38956,0 -29.85367,2.1798 z"
       id="path12"
       style="fill:#48b0d3;stroke:none;stroke-width:0;stroke-miterlimit:4;stroke-dasharray:none" />
    <path
       d="m 301.30177,224.40536 c -5.68642,4.83345 -3.41185,13.74217 4.07526,15.82718 4.54913,1.23206 47.00769,1.23206 51.46205,0 4.92822,-1.4216 7.01324,-4.07526 7.01324,-9.19303 0,-3.50662 -0.47386,-4.64391 -2.65366,-6.53938 l -2.65366,-2.27456 h -27.38956 c -27.01047,0 -27.38956,0 -29.85367,2.17979 z"
       id="path14"
       style="fill:#48b0d3;stroke:none;stroke-width:0;stroke-miterlimit:4;stroke-dasharray:none" />
    <path
       d="m 329.1652,325.43398 c -2.93798,2.93798 -3.69617,7.86621 -1.8007,11.56238 2.55889,4.6439 11.08851,5.78119 14.59513,1.89547 8.15053,-9.00349 -4.17004,-22.08224 -12.79443,-13.45785 z"
       id="path16"
       style="fill:#48b0d3;stroke:none;stroke-width:0;stroke-miterlimit:4;stroke-dasharray:none" />
  </g>
</svg>
